<svg width="24" height="24" viewBox="0 0 24 24" fill="none" xmlns="http://www.w3.org/2000/svg">
<g id="iOS icon / link">
<path id="&#244;&#128;&#137;&#163;" d="M11.627 15.5098C10.7388 15.3354 10.0914 14.9702 9.63483 14.5054C7.54303 12.4219 7.55133 9.4751 9.62653 7.4082L12.5484 4.47803C14.6153 2.41113 17.5538 2.39453 19.6456 4.49463C21.7374 6.57812 21.7374 9.5332 19.6539 11.5918L17.3214 13.9243C17.504 13.2021 17.3961 12.3804 17.1055 11.7163L18.3756 10.4463C19.7452 9.07666 19.7535 7.15088 18.3673 5.76465C16.9976 4.39502 15.0718 4.39502 13.6939 5.77295L10.9048 8.55371C9.53522 9.92334 9.53522 11.8574 10.9131 13.2354C11.3946 13.7168 12.0919 14.0322 13.0132 14.1235L11.627 15.5098ZM12.7642 8.396C13.6524 8.56201 14.2999 8.92725 14.7564 9.39209C16.8482 11.4756 16.8399 14.4224 14.773 16.4893L11.8511 19.4194C9.77594 21.4863 6.83746 21.5029 4.74567 19.4028C2.65387 17.3193 2.65387 14.3643 4.73737 12.3057L7.06989 9.97314C6.88727 10.6953 6.99518 11.5171 7.28571 12.1812L6.01569 13.4512C4.64606 14.8208 4.64606 16.7466 6.02399 18.1328C7.40192 19.5024 9.3277 19.5024 10.6973 18.1328L13.4864 15.3438C14.856 13.9741 14.856 12.04 13.4781 10.6621C12.9966 10.1807 12.2994 9.87354 11.3863 9.77393L12.7642 8.396Z" fill="#2C2C2C"/>
</g>
</svg>
