<svg width="1024" height="1024" viewBox="0 0 1024 1024" fill="none" xmlns="http://www.w3.org/2000/svg">
<mask id="mask0_13568_3740" style="mask-type:alpha" maskUnits="userSpaceOnUse" x="103" y="106" width="818" height="811">
<path d="M920.904 534.797C919.92 471.918 902.299 409.934 874.125 352.958C822.784 231.672 731.283 172.371 730.567 172.282C730.478 172.371 730.299 172.371 730.21 172.46C716.077 161.548 699.799 153.588 683.609 146.164C664.111 138.203 644.522 129.796 623.861 125.055C611.697 120.851 598.996 119.063 586.473 115.932C559.461 109.492 531.913 106.451 504.185 106.272C488.085 104.752 448.014 110.029 443.274 111.639C358.123 129.796 276.64 183.015 221.722 241.511C131.294 339.989 90.4182 478.895 106.965 605.279C117.43 672.183 151.866 733.094 195.783 785.15C262.687 862.966 364.742 913.86 471.717 915.917C473.953 915.917 476.1 916.007 478.336 916.007C479.767 916.007 481.198 916.007 482.719 916.007C582.717 916.007 685.667 889.173 768.313 833.271C866.075 764.668 923.677 649.822 920.904 534.797ZM778.867 818.96C694.7 882.286 584.685 911.445 479.23 910.998C370.646 911.087 266.354 860.104 199.003 780.857C146.768 719.141 109.112 643.114 108.575 562.346C106.608 430.863 159.469 293.567 268.411 205.018C317.248 166.915 375.923 132.747 438.444 118.168C439.07 118.615 444.795 117.005 446.852 116.29C448.104 116.021 455.528 114.054 458.032 113.696C475.027 112.354 491.931 110.118 509.015 111.818C537.279 111.818 565.365 116.021 592.734 122.998C618.047 127.828 643.002 135.162 666.794 145.18C688.171 153.498 709.369 163.337 727.705 177.38C728.6 178.095 745.415 190.886 752.481 197.147C813.482 250.813 855.878 318.969 885.126 391.955C947.826 541.774 911.781 714.579 778.867 818.96Z" fill="url(#paint0_linear_13568_3740)"/>
<path d="M920.904 534.797C919.92 471.918 902.299 409.934 874.125 352.958C822.784 231.672 731.283 172.371 730.567 172.282C730.478 172.371 730.299 172.371 730.21 172.46C716.077 161.548 699.799 153.588 683.609 146.164C664.111 138.203 644.522 129.796 623.861 125.055C611.697 120.851 598.996 119.063 586.473 115.932C559.461 109.492 531.913 106.451 504.185 106.272C488.085 104.752 448.014 110.029 443.274 111.639C358.123 129.796 276.64 183.015 221.722 241.511C131.294 339.989 90.4182 478.895 106.965 605.279C117.43 672.183 151.866 733.094 195.783 785.15C262.687 862.966 364.742 913.86 471.717 915.917C473.953 915.917 476.1 916.007 478.336 916.007C479.767 916.007 481.198 916.007 482.719 916.007C582.717 916.007 685.667 889.173 768.313 833.271C866.075 764.668 923.677 649.822 920.904 534.797ZM778.867 818.96C694.7 882.286 584.685 911.445 479.23 910.998C370.646 911.087 266.354 860.104 199.003 780.857C146.768 719.141 109.112 643.114 108.575 562.346C106.608 430.863 159.469 293.567 268.411 205.018C317.248 166.915 375.923 132.747 438.444 118.168C439.07 118.615 444.795 117.005 446.852 116.29C448.104 116.021 455.528 114.054 458.032 113.696C475.027 112.354 491.931 110.118 509.015 111.818C537.279 111.818 565.365 116.021 592.734 122.998C618.047 127.828 643.002 135.162 666.794 145.18C688.171 153.498 709.369 163.337 727.705 177.38C728.6 178.095 745.415 190.886 752.481 197.147C813.482 250.813 855.878 318.969 885.126 391.955C947.826 541.774 911.781 714.579 778.867 818.96Z" fill="white"/>
<path d="M477.084 858.763C407.049 856.705 338.088 828.799 285.585 783.004C233.528 735.42 198.198 671.378 182.367 604.653C166.893 521.738 180.846 434.352 218.323 360.024C245.335 308.683 285.227 264.23 330.933 227.916C349.179 214.946 384.867 185.519 407.854 195.447C490.053 162.711 581.465 181.763 661.249 216.02C742.732 248.577 804.359 308.326 842.193 385.605C870.726 441.418 879.402 500.182 869.027 561.004C859.635 629.16 825.02 692.129 776.721 741.412C701.498 821.196 588.799 862.43 477.084 858.763ZM462.683 852.591C559.014 858.763 657.224 831.751 732.356 773.88C812.051 711.27 863.749 623.525 867.327 522.454C868.043 487.392 864.286 451.614 850.333 418.699C829.582 363.781 794.878 313.692 749.887 274.605C691.928 227.737 618.942 200.546 546.134 187.219C507.316 180.6 467.156 183.283 429.679 193.659C414.652 198.041 399.983 203.855 385.762 210.116C381.737 210.921 371.093 219.15 368.857 214.946C367.157 210.116 375.386 209.758 378.248 207.522C385.046 204.571 391.844 201.44 398.821 198.846C371.54 196.789 316.264 245.894 296.944 264.766C231.918 327.198 193.905 405.014 184.066 494.19C173.959 572.274 190.506 644.634 233.618 712.522C282.096 791.859 368.857 844.63 462.683 852.591Z" fill="url(#paint1_linear_13568_3740)"/>
<path d="M477.084 858.763C407.049 856.705 338.088 828.799 285.585 783.004C233.528 735.42 198.198 671.378 182.367 604.653C166.893 521.738 180.846 434.352 218.323 360.024C245.335 308.683 285.227 264.23 330.933 227.916C349.179 214.946 384.867 185.519 407.854 195.447C490.053 162.711 581.465 181.763 661.249 216.02C742.732 248.577 804.359 308.326 842.193 385.605C870.726 441.418 879.402 500.182 869.027 561.004C859.635 629.16 825.02 692.129 776.721 741.412C701.498 821.196 588.799 862.43 477.084 858.763ZM462.683 852.591C559.014 858.763 657.224 831.751 732.356 773.88C812.051 711.27 863.749 623.525 867.327 522.454C868.043 487.392 864.286 451.614 850.333 418.699C829.582 363.781 794.878 313.692 749.887 274.605C691.928 227.737 618.942 200.546 546.134 187.219C507.316 180.6 467.156 183.283 429.679 193.659C414.652 198.041 399.983 203.855 385.762 210.116C381.737 210.921 371.093 219.15 368.857 214.946C367.157 210.116 375.386 209.758 378.248 207.522C385.046 204.571 391.844 201.44 398.821 198.846C371.54 196.789 316.264 245.894 296.944 264.766C231.918 327.198 193.905 405.014 184.066 494.19C173.959 572.274 190.506 644.634 233.618 712.522C282.096 791.859 368.857 844.63 462.683 852.591Z" fill="white"/>
<path fill-rule="evenodd" clip-rule="evenodd" d="M778.867 818.96C694.7 882.286 584.685 911.445 479.23 910.998C370.646 911.087 266.354 860.104 199.003 780.857C146.768 719.141 109.112 643.114 108.575 562.346C106.608 430.863 159.469 293.567 268.411 205.018C317.248 166.915 375.923 132.747 438.444 118.168C439.07 118.615 444.795 117.005 446.852 116.29C448.104 116.021 455.528 114.054 458.032 113.696C475.027 112.354 491.931 110.118 509.015 111.818C537.279 111.818 565.365 116.021 592.734 122.998C618.047 127.828 643.002 135.162 666.794 145.18C688.171 153.498 709.369 163.337 727.705 177.38C728.6 178.095 745.415 190.886 752.481 197.147C813.482 250.813 855.878 318.969 885.126 391.955C947.826 541.774 911.781 714.579 778.867 818.96ZM285.585 783.004C338.088 828.799 407.049 856.705 477.084 858.763C588.799 862.43 701.498 821.196 776.721 741.412C825.02 692.129 859.635 629.16 869.027 561.004C879.402 500.182 870.726 441.418 842.193 385.605C804.359 308.326 742.732 248.577 661.249 216.02C581.465 181.763 490.053 162.711 407.854 195.447C384.867 185.519 349.179 214.946 330.933 227.916C285.227 264.23 245.335 308.683 218.323 360.024C180.846 434.352 166.893 521.738 182.367 604.653C198.198 671.378 233.528 735.42 285.585 783.004Z" fill="url(#paint2_linear_13568_3740)"/>
<path fill-rule="evenodd" clip-rule="evenodd" d="M778.867 818.96C694.7 882.286 584.685 911.445 479.23 910.998C370.646 911.087 266.354 860.104 199.003 780.857C146.768 719.141 109.112 643.114 108.575 562.346C106.608 430.863 159.469 293.567 268.411 205.018C317.248 166.915 375.923 132.747 438.444 118.168C439.07 118.615 444.795 117.005 446.852 116.29C448.104 116.021 455.528 114.054 458.032 113.696C475.027 112.354 491.931 110.118 509.015 111.818C537.279 111.818 565.365 116.021 592.734 122.998C618.047 127.828 643.002 135.162 666.794 145.18C688.171 153.498 709.369 163.337 727.705 177.38C728.6 178.095 745.415 190.886 752.481 197.147C813.482 250.813 855.878 318.969 885.126 391.955C947.826 541.774 911.781 714.579 778.867 818.96ZM285.585 783.004C338.088 828.799 407.049 856.705 477.084 858.763C588.799 862.43 701.498 821.196 776.721 741.412C825.02 692.129 859.635 629.16 869.027 561.004C879.402 500.182 870.726 441.418 842.193 385.605C804.359 308.326 742.732 248.577 661.249 216.02C581.465 181.763 490.053 162.711 407.854 195.447C384.867 185.519 349.179 214.946 330.933 227.916C285.227 264.23 245.335 308.683 218.323 360.024C180.846 434.352 166.893 521.738 182.367 604.653C198.198 671.378 233.528 735.42 285.585 783.004Z" fill="white"/>
<path d="M580.75 462.258C595.061 445.532 607.404 425.497 606.152 403.047C605.615 365.748 579.319 316.376 537.191 317.359C520.822 317.449 505.259 322.547 489.696 326.93C472.791 331.223 454.902 335.695 443.453 349.917C417.336 378.002 409.465 424.424 426.37 459.038C431.11 469.145 439.697 476.48 448.373 483.188C455.171 487.66 460.179 495.8 468.229 498.036C473.328 513.062 466.977 529.073 464.562 544.099C459.285 567.086 453.561 589.895 448.015 612.792C442.738 632.023 437.371 653.221 444.437 672.63C447.568 680.77 455.35 685.778 463.847 686.226C481.109 689.445 498.73 689.177 516.171 689.267C520.196 689.803 548.371 687.836 553.112 682.916C558.12 682.558 565.008 679.249 566.528 676.566C578.603 665.653 582.896 650.895 579.766 635.064C576.188 606.621 573.147 578.088 568.138 549.913C565.544 528.715 554.006 503.671 564.56 483.367C566.618 480.415 568.943 477.553 571.358 474.87C574.041 472.544 576.009 468.072 579.587 467.446C581.018 467.446 582.27 466.194 582.27 464.763C581.912 463.421 581.376 462.616 580.75 462.258ZM556.6 487.571C552.128 505.46 557.673 523.348 560.983 540.969C565.813 566.281 569.211 591.773 572.163 617.354C574.667 641.325 581.644 660.734 557.494 676.476C554.632 678.086 548.818 675.671 547.834 679.517C546.314 680.054 544.883 680.68 543.631 680.769C539.784 681.753 535.938 682.558 532.092 683.095C517.423 684.258 460.358 686.226 452.398 675.492C439.429 655.993 449.983 628.445 454.723 607.604C458.838 590.789 462.773 573.884 466.977 557.069C470.197 540.879 475.474 524.69 475.295 508.054C475.206 505.728 474.759 498.662 472.97 494.905C472.88 494.369 472.612 493.921 472.165 493.653C471.539 492.848 470.734 492.401 469.839 492.49C469.571 492.49 469.303 492.58 469.034 492.759C468.051 492.49 467.156 492.043 466.351 491.506C451.146 477.911 432.005 466.999 426.728 445.801C415.905 410.023 427.801 365.659 458.748 343.477C470.734 335.964 485.224 334.354 498.461 329.971C514.472 325.409 531.377 320.669 548.103 323.62C586.385 332.923 609.103 388.646 597.833 424.334C593.808 435.962 586.474 446.158 579.14 455.908C576.277 459.575 573.147 463.063 569.838 466.373C569.122 467.088 568.943 467.983 569.122 468.788C563.04 475.228 557.047 484.709 556.6 487.571Z" fill="url(#paint3_linear_13568_3740)"/>
<path d="M580.75 462.258C595.061 445.532 607.404 425.497 606.152 403.047C605.615 365.748 579.319 316.376 537.191 317.359C520.822 317.449 505.259 322.547 489.696 326.93C472.791 331.223 454.902 335.695 443.453 349.917C417.336 378.002 409.465 424.424 426.37 459.038C431.11 469.145 439.697 476.48 448.373 483.188C455.171 487.66 460.179 495.8 468.229 498.036C473.328 513.062 466.977 529.073 464.562 544.099C459.285 567.086 453.561 589.895 448.015 612.792C442.738 632.023 437.371 653.221 444.437 672.63C447.568 680.77 455.35 685.778 463.847 686.226C481.109 689.445 498.73 689.177 516.171 689.267C520.196 689.803 548.371 687.836 553.112 682.916C558.12 682.558 565.008 679.249 566.528 676.566C578.603 665.653 582.896 650.895 579.766 635.064C576.188 606.621 573.147 578.088 568.138 549.913C565.544 528.715 554.006 503.671 564.56 483.367C566.618 480.415 568.943 477.553 571.358 474.87C574.041 472.544 576.009 468.072 579.587 467.446C581.018 467.446 582.27 466.194 582.27 464.763C581.912 463.421 581.376 462.616 580.75 462.258ZM556.6 487.571C552.128 505.46 557.673 523.348 560.983 540.969C565.813 566.281 569.211 591.773 572.163 617.354C574.667 641.325 581.644 660.734 557.494 676.476C554.632 678.086 548.818 675.671 547.834 679.517C546.314 680.054 544.883 680.68 543.631 680.769C539.784 681.753 535.938 682.558 532.092 683.095C517.423 684.258 460.358 686.226 452.398 675.492C439.429 655.993 449.983 628.445 454.723 607.604C458.838 590.789 462.773 573.884 466.977 557.069C470.197 540.879 475.474 524.69 475.295 508.054C475.206 505.728 474.759 498.662 472.97 494.905C472.88 494.369 472.612 493.921 472.165 493.653C471.539 492.848 470.734 492.401 469.839 492.49C469.571 492.49 469.303 492.58 469.034 492.759C468.051 492.49 467.156 492.043 466.351 491.506C451.146 477.911 432.005 466.999 426.728 445.801C415.905 410.023 427.801 365.659 458.748 343.477C470.734 335.964 485.224 334.354 498.461 329.971C514.472 325.409 531.377 320.669 548.103 323.62C586.385 332.923 609.103 388.646 597.833 424.334C593.808 435.962 586.474 446.158 579.14 455.908C576.277 459.575 573.147 463.063 569.838 466.373C569.122 467.088 568.943 467.983 569.122 468.788C563.04 475.228 557.047 484.709 556.6 487.571Z" fill="white"/>
<path d="M556.6 487.571C552.128 505.46 557.673 523.348 560.983 540.969C565.813 566.281 569.211 591.773 572.163 617.354C574.667 641.325 581.644 660.734 557.494 676.476C554.632 678.086 548.818 675.671 547.834 679.517C546.314 680.054 544.883 680.68 543.631 680.769C539.784 681.753 535.938 682.558 532.092 683.095C517.423 684.258 460.358 686.226 452.398 675.492C439.429 655.993 449.983 628.445 454.723 607.604C458.838 590.789 462.773 573.884 466.977 557.069C470.197 540.879 475.474 524.69 475.295 508.054C475.206 505.728 474.759 498.662 472.97 494.905C472.88 494.369 472.612 493.921 472.165 493.653C471.539 492.848 470.734 492.401 469.839 492.49C469.571 492.49 469.303 492.58 469.034 492.759C468.051 492.49 467.156 492.043 466.351 491.506C451.146 477.911 432.005 466.999 426.728 445.801C415.905 410.023 427.801 365.659 458.748 343.477C470.734 335.964 485.224 334.354 498.461 329.971C514.472 325.409 531.377 320.669 548.103 323.62C586.385 332.923 609.103 388.646 597.833 424.334C593.808 435.962 586.474 446.158 579.14 455.908C576.277 459.575 573.147 463.063 569.838 466.373C569.122 467.088 568.943 467.983 569.122 468.788C563.04 475.228 557.047 484.709 556.6 487.571Z" fill="url(#paint4_linear_13568_3740)"/>
<path d="M556.6 487.571C552.128 505.46 557.673 523.348 560.983 540.969C565.813 566.281 569.211 591.773 572.163 617.354C574.667 641.325 581.644 660.734 557.494 676.476C554.632 678.086 548.818 675.671 547.834 679.517C546.314 680.054 544.883 680.68 543.631 680.769C539.784 681.753 535.938 682.558 532.092 683.095C517.423 684.258 460.358 686.226 452.398 675.492C439.429 655.993 449.983 628.445 454.723 607.604C458.838 590.789 462.773 573.884 466.977 557.069C470.197 540.879 475.474 524.69 475.295 508.054C475.206 505.728 474.759 498.662 472.97 494.905C472.88 494.369 472.612 493.921 472.165 493.653C471.539 492.848 470.734 492.401 469.839 492.49C469.571 492.49 469.303 492.58 469.034 492.759C468.051 492.49 467.156 492.043 466.351 491.506C451.146 477.911 432.005 466.999 426.728 445.801C415.905 410.023 427.801 365.659 458.748 343.477C470.734 335.964 485.224 334.354 498.461 329.971C514.472 325.409 531.377 320.669 548.103 323.62C586.385 332.923 609.103 388.646 597.833 424.334C593.808 435.962 586.474 446.158 579.14 455.908C576.277 459.575 573.147 463.063 569.838 466.373C569.122 467.088 568.943 467.983 569.122 468.788C563.04 475.228 557.047 484.709 556.6 487.571Z" fill="white"/>
</mask>
<g mask="url(#mask0_13568_3740)">
<circle cx="511.968" cy="511.273" r="413.677" fill="url(#paint5_linear_13568_3740)"/>
<circle cx="511.968" cy="511.273" r="413.677" fill="white" style="mix-blend-mode:soft-light"/>
</g>
<path d="M920.539 536.351C919.555 473.472 901.934 411.487 873.759 354.512C822.419 233.226 730.918 173.925 730.202 173.835C730.113 173.925 729.934 173.925 729.844 174.014C715.712 163.102 699.433 155.141 683.244 147.718C663.745 139.757 644.157 131.349 623.496 126.609C611.331 122.405 598.63 120.616 586.108 117.486C559.096 111.046 531.548 108.004 503.82 107.826C487.72 106.305 447.649 111.582 442.909 113.192C357.758 131.349 276.275 184.568 221.356 243.065C130.929 341.542 90.053 480.448 106.6 606.832C117.065 673.736 151.501 734.648 195.418 786.704C262.322 864.52 364.377 915.413 471.352 917.471C473.588 917.471 475.735 917.56 477.971 917.56C479.402 917.56 480.833 917.56 482.353 917.56C582.352 917.56 685.301 890.727 767.947 834.825C865.709 766.221 923.311 651.375 920.539 536.351ZM778.502 820.514C694.335 883.84 584.319 912.999 478.865 912.551C370.28 912.641 265.989 861.658 198.638 782.411C146.403 720.694 108.747 644.667 108.21 563.899C106.242 432.417 159.104 295.121 268.046 206.572C316.882 168.468 375.558 134.301 438.079 119.722C438.705 120.169 444.429 118.559 446.486 117.843C447.739 117.575 455.163 115.607 457.667 115.249C474.661 113.908 491.566 111.672 508.65 113.371C536.914 113.371 564.999 117.575 592.369 124.552C617.682 129.382 642.637 136.716 666.429 146.734C687.806 155.052 709.004 164.891 727.34 178.933C728.234 179.649 745.05 192.439 752.116 198.7C813.117 252.367 855.513 320.523 884.761 393.509C947.461 543.327 911.415 716.133 778.502 820.514Z" fill="black"/>
<path d="M920.539 536.351C919.555 473.472 901.934 411.487 873.759 354.512C822.419 233.226 730.918 173.925 730.202 173.835C730.113 173.925 729.934 173.925 729.844 174.014C715.712 163.102 699.434 155.141 683.244 147.718C663.745 139.757 644.157 131.349 623.496 126.609C611.331 122.405 598.63 120.616 586.108 117.486C559.096 111.046 531.548 108.004 503.82 107.826C487.72 106.305 447.649 111.582 442.909 113.192C357.758 131.349 276.275 184.568 221.356 243.065C130.929 341.542 90.053 480.448 106.6 606.832C117.065 673.736 151.501 734.648 195.418 786.704C262.322 864.52 364.377 915.413 471.352 917.471C473.588 917.471 475.735 917.56 477.971 917.56C479.402 917.56 480.833 917.56 482.353 917.56C582.352 917.56 685.301 890.727 767.947 834.825C865.709 766.221 923.311 651.375 920.539 536.351ZM778.502 820.514C694.335 883.84 584.319 912.999 478.865 912.551C370.28 912.641 265.989 861.658 198.638 782.411C146.403 720.694 108.747 644.667 108.21 563.899C106.242 432.417 159.104 295.121 268.046 206.572C316.882 168.468 375.558 134.301 438.079 119.722C438.705 120.169 444.429 118.559 446.487 117.843C447.739 117.575 455.163 115.607 457.667 115.249C474.661 113.908 491.566 111.672 508.65 113.371C536.914 113.371 564.999 117.575 592.369 124.552C617.682 129.382 642.637 136.716 666.429 146.734C687.806 155.052 709.004 164.891 727.34 178.933C728.234 179.649 745.05 192.439 752.116 198.7C813.117 252.367 855.513 320.523 884.761 393.509C947.461 543.327 911.415 716.133 778.502 820.514Z" fill="black"/>
<path d="M476.719 860.316C406.684 858.259 337.723 830.352 285.219 784.557C233.163 736.973 197.833 672.931 182.001 606.206C166.528 523.292 180.481 435.905 217.958 361.578C244.97 310.237 284.862 265.783 330.567 229.469C348.814 216.5 384.502 187.073 407.489 197.001C489.688 164.265 581.1 183.316 660.883 217.573C742.367 250.131 803.993 309.879 841.828 387.158C870.361 442.971 879.037 501.736 868.661 562.558C859.27 630.714 824.655 693.682 776.355 742.966C701.133 822.75 588.434 863.983 476.719 860.316ZM462.318 854.144C558.649 860.316 656.858 833.304 731.991 775.434C811.686 712.823 863.384 625.079 866.962 524.007C867.677 488.946 863.921 453.168 849.968 420.253C829.217 365.334 794.512 315.246 749.522 276.159C691.563 229.29 618.576 202.099 545.769 188.772C506.951 182.153 466.79 184.837 429.313 195.212C414.287 199.595 399.618 205.409 385.397 211.67C381.372 212.475 370.728 220.704 368.492 216.5C366.792 211.67 375.021 211.312 377.883 209.076C384.681 206.124 391.479 202.994 398.455 200.4C371.175 198.343 315.899 247.447 296.579 266.32C231.553 328.752 193.54 406.568 183.701 495.743C173.594 573.828 190.141 646.188 233.253 714.076C281.731 793.412 368.492 846.184 462.318 854.144Z" fill="black"/>
<path d="M580.383 463.812C594.695 447.086 607.038 427.05 605.785 404.6C605.249 367.302 578.952 317.929 536.824 318.913C520.456 319.002 504.893 324.101 489.33 328.483C472.425 332.777 454.536 337.249 443.087 351.47C416.97 379.556 409.099 425.977 426.003 460.592C430.744 470.699 439.331 478.033 448.007 484.742C454.804 489.214 459.813 497.353 467.863 499.589C472.961 514.616 466.611 530.626 464.196 545.653C458.919 568.64 453.194 591.448 447.649 614.346C442.372 633.576 437.005 654.774 444.071 674.184C447.202 682.323 454.983 687.332 463.48 687.779C480.743 690.999 498.364 690.731 515.805 690.82C519.83 691.357 548.005 689.389 552.745 684.47C557.754 684.112 564.641 680.802 566.162 678.119C578.237 667.207 582.53 652.449 579.4 636.617C575.822 608.174 572.781 579.642 567.772 551.467C565.178 530.269 553.64 505.224 564.194 484.921C566.251 481.969 568.577 479.107 570.992 476.423C573.675 474.098 575.643 469.626 579.221 469C580.652 469 581.904 467.747 581.904 466.316C581.546 464.975 581.01 464.17 580.383 463.812ZM556.234 489.124C551.761 507.013 557.307 524.902 560.616 542.522C565.446 567.835 568.845 593.326 571.797 618.907C574.301 642.878 581.278 662.288 557.128 678.03C554.266 679.64 548.452 677.225 547.468 681.071C545.948 681.607 544.517 682.234 543.264 682.323C539.418 683.307 535.572 684.112 531.726 684.648C517.057 685.811 459.992 687.779 452.032 677.046C439.062 657.547 449.617 629.998 454.357 609.158C458.472 592.343 462.407 575.438 466.611 558.622C469.831 542.433 475.108 526.244 474.929 509.607C474.84 507.282 474.393 500.215 472.604 496.459C472.514 495.922 472.246 495.475 471.799 495.207C471.173 494.402 470.368 493.954 469.473 494.044C469.205 494.044 468.937 494.133 468.668 494.312C467.684 494.044 466.79 493.597 465.985 493.06C450.779 479.464 431.638 468.552 426.361 447.354C415.539 411.577 427.435 367.213 458.382 345.03C470.368 337.517 484.858 335.907 498.095 331.524C514.106 326.963 531.011 322.222 547.737 325.174C586.018 334.476 608.737 390.2 597.467 425.888C593.442 437.515 586.108 447.712 578.773 457.461C575.911 461.129 572.781 464.617 569.471 467.926C568.756 468.642 568.577 469.536 568.756 470.341C562.674 476.781 556.681 486.262 556.234 489.124Z" fill="black"/>
<defs>
<linearGradient id="paint0_linear_13568_3740" x1="251.423" y1="246.109" x2="963.021" y2="949.821" gradientUnits="userSpaceOnUse">
<stop stop-color="#FA6F52"/>
<stop offset="0.192941" stop-color="#DC1387"/>
<stop offset="0.46168" stop-color="#381ACA"/>
<stop offset="0.874006" stop-color="#007ECF"/>
</linearGradient>
<linearGradient id="paint1_linear_13568_3740" x1="251.423" y1="246.109" x2="963.021" y2="949.821" gradientUnits="userSpaceOnUse">
<stop stop-color="#FA6F52"/>
<stop offset="0.192941" stop-color="#DC1387"/>
<stop offset="0.46168" stop-color="#381ACA"/>
<stop offset="0.874006" stop-color="#007ECF"/>
</linearGradient>
<linearGradient id="paint2_linear_13568_3740" x1="251.423" y1="246.109" x2="963.021" y2="949.821" gradientUnits="userSpaceOnUse">
<stop stop-color="#FA6F52"/>
<stop offset="0.192941" stop-color="#DC1387"/>
<stop offset="0.46168" stop-color="#381ACA"/>
<stop offset="0.874006" stop-color="#007ECF"/>
</linearGradient>
<linearGradient id="paint3_linear_13568_3740" x1="451.628" y1="381.692" x2="712.214" y2="511.257" gradientUnits="userSpaceOnUse">
<stop stop-color="#FA6F52"/>
<stop offset="0.192941" stop-color="#DC1387"/>
<stop offset="0.46168" stop-color="#381ACA"/>
<stop offset="0.874006" stop-color="#007ECF"/>
</linearGradient>
<linearGradient id="paint4_linear_13568_3740" x1="451.628" y1="381.692" x2="712.214" y2="511.257" gradientUnits="userSpaceOnUse">
<stop stop-color="#FA6F52"/>
<stop offset="0.192941" stop-color="#DC1387"/>
<stop offset="0.46168" stop-color="#381ACA"/>
<stop offset="0.874006" stop-color="#007ECF"/>
</linearGradient>
<linearGradient id="paint5_linear_13568_3740" x1="248.108" y1="240.706" x2="974.839" y2="952.679" gradientUnits="userSpaceOnUse">
<stop stop-color="#FA6F52"/>
<stop offset="0.192941" stop-color="#DC1387"/>
<stop offset="0.46168" stop-color="#381ACA"/>
<stop offset="0.874006" stop-color="#007ECF"/>
</linearGradient>
</defs>
</svg>
